# xmcd
#
# Track frame offsets:
# 150
# 15621
# 32790
# 47668
# 62378
# 75472
# 88812
# 105245
# 115873
# 129591
# 142184
# 155245
# 167922
# 180335
#
# Disc length: 2577 seconds
#
#
# Revision: 0
# Processed by: cddbd v1.5.1PL2 Copyright (c) Steve Scherf et al.
# Submitted via: FreeRIP 2.944 
#
DISCID=b10a0f0e
DTITLE=Derailers  - LIVE Tracks
DYEAR=1997
DGENRE=Country
TTITLE0=Big City Blues.mp3
TTITLE1=Lies, Lies, Lies.mp3
TTITLE2=Lover's Lie.mp3
TTITLE3=Lost And Found.mp3
TTITLE4=Jackpot.mp3
TTITLE5=Wishful Thinkin'.mp3
TTITLE6=Dim Lights.mp3
TTITLE7=I'll Catch You When You Fall.mp3
TTITLE8=Painful Days and Sleepless Night.mp3
TTITLE9=My Heart's Ready.mp3
TTITLE10=I'm Your Man.mp3
TTITLE11=I Go Anywhere.mp3
TTITLE12=You Done Me Wrong.mp3
TTITLE13=Just One More Time.mp3
EXTD=
EXTT0=
EXTT1=
EXTT2=
EXTT3=
EXTT4=
EXTT5=
EXTT6=
EXTT7=
EXTT8=
EXTT9=
EXTT10=
EXTT11=
EXTT12=
EXTT13=
PLAYORDER=
